<?xml version="1.0" encoding="UTF-8"?>
<svg id="frappe-symbols" data-name="Layer 2" xmlns="http://www.w3.org/2000/svg" viewBox="0 0 262.29 266.26">
  <defs>
    <style>
      .cls-1 {
        fill: none;
        stroke: #fca311;
        stroke-miterlimit: 10;
        stroke-width: 6px;
      }
    </style>
  </defs>
  <g id="Layer_1-2" data-name="Layer 1">
    <g>
      <path class="cls-1" d="m103.64,263.26h48.1v-129.61s9.23-89.26,107.54-86.43V4.5S125.75-10.86,103.64,133.88v129.38Z"/>
      <g>
        <path class="cls-1" d="m257.46,86.54v16.73c-.62-5.84-2.2-11.4-4.6-16.5,1.51-.13,3.05-.21,4.6-.23Z"/>
        <path class="cls-1" d="m257.46,103.27v11.09c-2.77,26.11-24.86,46.46-51.7,46.46-4.58,0-9.03-.59-13.25-1.71v-20.17c6.58-28.22,30.76-49.69,60.36-52.17,2.39,5.1,3.98,10.66,4.6,16.5Z"/>
      </g>
      <g>
        <path class="cls-1" d="m127.2,5.37c-35.62,10.5-21.54,41.99-21.54,41.99l7.96,12.71c-1.21-34.34,13.58-54.71,13.58-54.71Zm-18.95,45.65c-1.44-15.61,3.28-25.18,5.59-28.84.33-.57.68-1.07,1.05-1.52.09-.12.16-.2.16-.2-.05.06-.1.13-.16.2-.19.25-.57.75-1.05,1.52-5.1,8.84-4.36,30.9-4.36,30.9l-1.23-2.06Z"/>
        <path class="cls-1" d="m60.26,17.5C20.7,8.44,5.3,45.3,5.3,45.3c13.64-4.5,46.63-5.34,46.63-5.34,62.81,4.91,55.21,47.71,56.32,42.28,1.11-5.43,6.97-14.82,6.97-14.82,0,0-15.4-40.87-54.96-49.92Zm-14.82,18.27s39.96-18.18,67.59,35.26l-1.67,1.83s-17.58-43.11-65.92-37.09Z"/>
      </g>
    </g>
  </g>
</svg>
